<?xml version="1.0" encoding="UTF-8"?>
<svg id="Capa_2" xmlns="http://www.w3.org/2000/svg" xmlns:xlink="http://www.w3.org/1999/xlink" viewBox="0 0 923.13 173.82">
  <defs>
    <style>
      .cls-1 {
        fill: #2e172e;
      }

      .cls-2 {
        fill: url(#Degradado_sin_nombre_4-2);
      }

      .cls-3 {
        fill: url(#Degradado_sin_nombre_4);
      }

      .cls-4 {
        fill: url(#Degradado_sin_nombre_4-3);
      }
    </style>
    <linearGradient id="Degradado_sin_nombre_4" data-name="Degradado sin nombre 4" x1="0" y1="86.91" x2="293.13" y2="86.91" gradientUnits="userSpaceOnUse">
      <stop offset="0" stop-color="#4e064f"/>
      <stop offset="1" stop-color="#8b006b"/>
    </linearGradient>
    <linearGradient id="Degradado_sin_nombre_4-2" data-name="Degradado sin nombre 4" x1="2252.65" y1="401.61" x2="2306.94" y2="347.32" gradientTransform="translate(-1402.68 -350.77)" xlink:href="#Degradado_sin_nombre_4"/>
    <linearGradient id="Degradado_sin_nombre_4-3" data-name="Degradado sin nombre 4" x1="2252.65" y1="401.61" x2="2306.94" y2="347.32" gradientTransform="translate(-1402.68 -350.77)" xlink:href="#Degradado_sin_nombre_4"/>
  </defs>
  <g id="TEXTO">
    <g>
      <path class="cls-3" d="M43.93,87.89v41.99c0,24.26,19.67,43.93,43.96,43.93,18.04,0,33.56-10.91,40.31-26.47,6.77,15.57,22.27,26.47,40.33,26.47s33.58-10.91,40.33-26.47c.41.96.87,1.92,1.37,2.86.19.38.38.74.6,1.1.96,1.75,2.07,3.46,3.31,5.04.24.36.53.72.82,1.06.6.79,1.25,1.54,1.95,2.26.38.43.79.86,1.2,1.27.41.41.84.82,1.27,1.2,1.15,1.08,2.35,2.09,3.6,3,.53.41,1.08.79,1.63,1.15,1.23.84,2.5,1.61,3.82,2.31.55.31,1.13.6,1.71.87.05.02.1.05.14.07.58.29,1.18.55,1.8.82.53.24,1.08.46,1.63.65.86.34,1.73.62,2.64.91.6.17,1.22.36,1.85.5.6.17,1.23.31,1.85.43,1.35.29,2.74.53,4.13.67.41.05.82.1,1.23.12,1.25.12,2.5.17,3.77.17,24.26,0,43.93-19.67,43.93-43.93s-19.67-43.96-43.93-43.96v-41.96c0-24.29-19.67-43.96-43.96-43.96-18.06,0-33.56,10.91-40.31,26.5C158.15,10.91,142.66,0,124.6,0s-33.58,10.91-40.33,26.5c-.41-.96-.87-1.92-1.37-2.86-.24-.48-.5-.94-.77-1.39-.5-.91-1.06-1.8-1.66-2.69-1.15-1.73-2.43-3.39-3.84-4.95-.36-.41-.7-.77-1.08-1.15-.34-.38-.72-.74-1.1-1.1-1.87-1.83-3.92-3.48-6.1-4.95-.53-.36-1.08-.7-1.63-1.03-.6-.36-1.2-.72-1.83-1.06-.62-.34-1.25-.67-1.9-.96-.05-.02-.07-.05-.12-.07-.6-.29-1.2-.55-1.83-.82-.58-.24-1.18-.48-1.75-.7-.82-.31-1.66-.6-2.5-.84-.62-.19-1.25-.38-1.87-.53-.62-.17-1.23-.31-1.85-.43-.17-.05-.31-.07-.46-.1-.55-.12-1.11-.22-1.66-.31-.65-.1-1.32-.19-1.99-.26-.41-.05-.82-.1-1.23-.12-1.25-.12-2.52-.17-3.8-.17C19.67,0,0,19.7,0,43.96s19.67,43.93,43.93,43.93Z"/>
      <g>
        <path class="cls-1" d="M447.41,49.41c11.29,0,20.22,3.6,26.77,10.81,6.55,7.2,9.83,17.1,9.83,29.69v55.02c0,2.52-2.04,4.56-4.56,4.56h-23.4c-2.52,0-4.56-2.04-4.56-4.56v-51.32c0-9.09-4.03-13.63-12.07-13.63-4.42,0-7.76,1.46-10.03,4.38-2.27,2.92-3.41,6.91-3.41,11.98v48.59c0,2.52-2.04,4.56-4.56,4.56h-23.2c-2.52,0-4.56-2.04-4.56-4.56v-51.32c0-9.09-4.09-13.63-12.27-13.63-4.42,0-7.76,1.46-10.03,4.38-2.27,2.92-3.41,6.91-3.41,11.98v48.59c0,2.52-2.04,4.56-4.56,4.56h-23.2c-2.52,0-4.56-2.04-4.56-4.56V56.7c0-2.52,2.04-4.56,4.56-4.56h24.34c1.89,0,3.42,1.53,3.42,3.42v2.08c0,1.23,1.48,1.8,2.33.91,5.84-6.09,13.82-9.13,23.95-9.13,11.16,0,19.47,4.16,24.92,12.46,6.75-8.3,16.16-12.46,28.23-12.46Z"/>
        <path class="cls-1" d="M573.49,52.14h24.34c2.52,0,4.56,2.04,4.56,4.56v88.23c0,2.52-2.04,4.56-4.56,4.56h-24.34c-1.89,0-3.42-1.53-3.42-3.42v-2.65c0-1.01-1.21-1.52-1.92-.81-6.44,6.4-15.02,9.6-25.72,9.6-12.98,0-23.85-4.9-32.61-14.7-8.76-9.8-13.14-22.03-13.14-36.7s4.38-26.9,13.14-36.7c8.76-9.8,19.63-14.7,32.61-14.7,10.71,0,19.28,3.2,25.72,9.6.71.71,1.93.2,1.93-.81v-2.65c0-1.89,1.53-3.42,3.42-3.42ZM534.83,116.19c3.76,3.9,8.7,5.84,14.8,5.84s11.03-1.95,14.8-5.84c3.76-3.89,5.65-9.02,5.65-15.38s-1.88-11.49-5.65-15.38c-3.77-3.9-8.7-5.84-14.8-5.84s-11.03,1.95-14.8,5.84c-3.77,3.9-5.65,9.02-5.65,15.38s1.88,11.49,5.65,15.38Z"/>
        <path class="cls-1" d="M680.47,49.41c10.51,0,19.11,3.6,25.8,10.81,6.68,7.2,10.03,17.56,10.03,31.06v53.66c0,2.52-2.04,4.56-4.56,4.56h-23.2c-2.52,0-4.56-2.04-4.56-4.56v-49.57c0-5.06-1.33-8.89-3.99-11.49-2.66-2.6-6.2-3.9-10.61-3.9-5.06,0-8.99,1.53-11.78,4.58-2.79,3.05-4.19,7.43-4.19,13.14v47.23c0,2.52-2.04,4.56-4.56,4.56h-23.2c-2.52,0-4.56-2.04-4.56-4.56V56.7c0-2.52,2.04-4.56,4.56-4.56h24.34c1.89,0,3.42,1.53,3.42,3.42v3.06c0,1.05,1.29,1.53,1.98.74,5.82-6.62,14.18-9.94,25.08-9.94Z"/>
        <path class="cls-1" d="M780.74,152.22c-14.8,0-27.13-4.93-36.99-14.8-9.87-9.86-14.8-22.07-14.8-36.61s4.93-26.74,14.8-36.61c9.86-9.86,22.2-14.8,36.99-14.8,9.61,0,18.33,2.27,26.19,6.81,6.37,3.69,11.57,8.4,15.59,14.14,1.52,2.17.8,5.21-1.5,6.53l-19.88,11.48c-1.89,1.09-4.34.73-5.71-.96-3.51-4.31-8.47-6.47-14.88-6.47-5.45,0-10,1.85-13.63,5.55-3.64,3.7-5.45,8.47-5.45,14.31s1.82,10.61,5.45,14.31c3.63,3.7,8.18,5.55,13.63,5.55,6.58,0,11.55-2.17,14.92-6.5,1.37-1.76,3.86-2.17,5.79-1.05l19.8,11.43c2.29,1.32,3.01,4.33,1.52,6.51-4.03,5.86-9.25,10.64-15.65,14.34-7.86,4.54-16.58,6.82-26.19,6.82Z"/>
        <path class="cls-1" d="M863.21,52.13h-23.19c-2.53,0-4.56,2.05-4.56,4.56v88.24c0,2.51,2.03,4.56,4.56,4.56h23.19c2.53,0,4.56-2.05,4.56-4.56V56.69c0-2.51-2.03-4.56-4.56-4.56Z"/>
        <path class="cls-1" d="M914.22,52.13h-23.19c-2.51,0-4.56,2.05-4.56,4.56v88.24c0,2.51,2.05,4.56,4.56,4.56h23.19c2.53,0,4.58-2.05,4.58-4.56V56.69c0-2.51-2.05-4.56-4.58-4.56Z"/>
        <g>
          <path class="cls-2" d="M851.63,3.36c-5.56,0-10.37,1.98-14.43,5.97-4.06,3.99-6.09,8.76-6.09,14.32s2.03,10.35,6.09,14.41c4.06,4.06,8.87,6.09,14.43,6.09s10.35-2.03,14.41-6.09c4.06-4.06,6.09-8.87,6.09-14.41s-2.03-10.33-6.09-14.32c-4.06-3.99-8.87-5.97-14.41-5.97Z"/>
          <path class="cls-4" d="M917.05,9.33c-4.06-3.99-8.87-5.97-14.41-5.97s-10.37,1.98-14.43,5.97c-4.06,3.99-6.09,8.76-6.09,14.32s2.03,10.35,6.09,14.41c4.06,4.06,8.87,6.09,14.43,6.09s10.35-2.03,14.41-6.09c4.06-4.06,6.09-8.87,6.09-14.41s-2.03-10.33-6.09-14.32Z"/>
        </g>
      </g>
    </g>
  </g>
</svg>